<?xml version="1.0" encoding="utf-8"?>
<!-- Generator: Adobe Illustrator 16.0.0, SVG Export Plug-In . SVG Version: 6.00 Build 0)  -->
<!DOCTYPE svg PUBLIC "-//W3C//DTD SVG 1.1//EN" "http://www.w3.org/Graphics/SVG/1.1/DTD/svg11.dtd">
<svg xmlns="http://www.w3.org/2000/svg" xmlns:xlink="http://www.w3.org/1999/xlink" version="1.1" id="Layer_1" x="0px" y="0px" width="512" height="512" viewBox="0 0 512 512" enable-background="new 0 0 512 512" xml:space="preserve">
<g id="sim_card">
	<g>
		<path fill="#3BAFDA" d="M405.344,245.328c0-5.891,4.766-10.664,10.656-10.664v-21.336c-5.891,0-10.656-4.773-10.656-10.664    S410.109,192,416,192V42.664c0-11.781-9.547-21.336-21.328-21.336H117.344C105.562,21.328,96,30.883,96,42.664V192    c5.891,0,10.672,4.773,10.672,10.664S101.891,213.328,96,213.328v21.336c5.891,0,10.672,4.773,10.672,10.664    S101.891,255.992,96,255.992V448l64,64h234.672c11.781,0,21.328-9.562,21.328-21.344V255.992    C410.109,255.992,405.344,251.219,405.344,245.328z"/>
	</g>
	<g>
		<path fill="#4FC2E9" d="M405.344,245.328c0-5.891,4.766-10.664,10.656-10.664v-21.336c-5.891,0-10.656-4.773-10.656-10.664    S410.109,192,416,192V21.328C416,9.547,406.453,0,394.672,0H117.344C105.562,0,96,9.547,96,21.328V192    c5.891,0,10.672,4.773,10.672,10.664S101.891,213.328,96,213.328v21.336c5.891,0,10.672,4.773,10.672,10.664    S101.891,255.992,96,255.992v170.664l64,64h234.672c11.781,0,21.328-9.547,21.328-21.328V255.992    C410.109,255.992,405.344,251.219,405.344,245.328z"/>
	</g>
	<path fill="#FFCE54" d="M160,288c-5.875,0-10.656-4.781-10.656-10.672V64c0-5.883,4.781-10.672,10.656-10.672h192   c5.891,0,10.672,4.789,10.672,10.672v213.328c0,5.891-4.781,10.672-10.672,10.672H160z"/>
	<path fill="#F6BB42" d="M352,42.664H160c-11.781,0-21.328,9.547-21.328,21.336v64v85.328v64c0,11.781,9.547,21.328,21.328,21.328   h192c11.781,0,21.344-9.547,21.344-21.328v-64V128V64C373.344,52.211,363.781,42.664,352,42.664z M266.672,128V64h32v64H266.672z    M213.344,128V64h32v64H213.344z M160,64h32v64v10.664v10.664h160V192H160v-27.117v-15.555V128V64z M245.344,213.328v64h-32v-64   H245.344z M266.672,213.328h32v64h-32V213.328z M160,213.328h32v64h-32V213.328z M352,277.328h-32v-64h32V277.328z M320,128V64h32   v64H320z"/>
	<path fill="#3BAFDA" d="M160,352c0,5.891-4.766,10.656-10.656,10.656s-10.672-4.766-10.672-10.656s4.781-10.672,10.672-10.672   S160,346.109,160,352z"/>
	<path fill="#3BAFDA" d="M202.672,352c0,5.891-4.781,10.656-10.672,10.656s-10.656-4.766-10.656-10.656s4.766-10.672,10.656-10.672   S202.672,346.109,202.672,352z"/>
	<path fill="#3BAFDA" d="M245.344,352c0,5.891-4.781,10.656-10.672,10.656S224,357.891,224,352s4.781-10.672,10.672-10.672   S245.344,346.109,245.344,352z"/>
	<path fill="#3BAFDA" d="M288,352c0,5.891-4.766,10.656-10.656,10.656s-10.672-4.766-10.672-10.656s4.781-10.672,10.672-10.672   S288,346.109,288,352z"/>
	<path fill="#3BAFDA" d="M330.672,352c0,5.891-4.781,10.656-10.672,10.656s-10.656-4.766-10.656-10.656s4.766-10.672,10.656-10.672   S330.672,346.109,330.672,352z"/>
	<path fill="#3BAFDA" d="M373.344,352c0,5.891-4.781,10.656-10.672,10.656S352,357.891,352,352s4.781-10.672,10.672-10.672   S373.344,346.109,373.344,352z"/>
	<path fill="#656D78" d="M362.672,384H149.344c-5.891,0-10.672,4.781-10.672,10.656c0,5.906,4.781,10.672,10.672,10.672h213.328   c5.891,0,10.672-4.766,10.672-10.672C373.344,388.781,368.562,384,362.672,384z"/>
</g>
</svg>
