<?xml version="1.0" encoding="iso-8859-1"?>
<!-- Generator: Adobe Illustrator 19.0.0, SVG Export Plug-In . SVG Version: 6.00 Build 0)  -->
<svg version="1.1" id="Layer_1" xmlns="http://www.w3.org/2000/svg" xmlns:xlink="http://www.w3.org/1999/xlink" x="0px" y="0px"
	 viewBox="0 0 480 480" style="enable-background:new 0 0 480 480;" xml:space="preserve">
<polygon style="fill:#3684C1;" points="216.001,472 8.001,472 48.001,384 200.001,344 "/>
<polygon style="fill:#5E9DCD;" points="56.001,400 202.193,361.528 200.001,344 48.001,384 8.001,472 23.273,472 "/>
<polygon style="fill:#3684C1;" points="264.001,472 472.001,472 432.001,384 280.001,344 "/>
<path style="fill:#FADCD7;" d="M156.209,276.976c50.56,32.688,115.528,32.928,166.328,0.608l0.72-0.456
	c18.224-11.592,28.24-32.56,25.8-54.024l-16.24-118.392H145.529l-14.84,119.04C128.513,244.88,138.369,265.448,156.209,276.976
	L156.209,276.976z"/>
<path style="fill:#FCB641;" d="M360.001,8h-152c-35.344,0-64,28.656-64,64v32h178.52c31.224,0,54.144-29.344,46.568-59.64L360.001,8
	z"/>
<path style="fill:#FDC567;" d="M208.001,32h152l8.984,35.928c1.92-7.432,2.136-15.456,0.104-23.568L360.001,8h-152
	c-35.344,0-64,28.656-64,64v24C144.001,60.656,172.657,32,208.001,32z"/>
<path style="fill:#E65039;" d="M136.001,184l-27.136-5.424c-7.48-1.496-12.864-8.064-12.864-15.696v-21.328
	c0-7.824,5.656-14.496,13.368-15.784L144.001,120L136.001,184z"/>
<path style="fill:#EB7361;" d="M109.369,141.768l32.584-5.432L144.001,120l-34.632,5.768c-7.712,1.288-13.368,7.968-13.368,15.784
	v16C96.001,149.736,101.657,143.056,109.369,141.768z"/>
<path style="fill:#132C47;" d="M136.001,192c-0.52,0-1.048-0.056-1.568-0.16l-27.136-5.432
	c-11.176-2.224-19.296-12.12-19.296-23.528v-21.328c0-11.792,8.44-21.744,20.056-23.672l34.624-5.776
	c2.48-0.408,5.032,0.368,6.856,2.12s2.712,4.256,2.4,6.768l-8,64c-0.272,2.2-1.456,4.192-3.264,5.504
	C139.305,191.48,137.665,192,136.001,192z M134.729,129.656l-24.04,4.008c-3.88,0.64-6.688,3.96-6.688,7.888v21.328
	c0,3.808,2.704,7.104,6.432,7.84l18.696,3.744L134.729,129.656z"/>
<path style="fill:#E65039;" d="M240.001,272h-8c-8.84,0-16-7.16-16-16l0,0c0-8.84,7.16-16,16-16h8c8.84,0,16,7.16,16,16l0,0
	C256.001,264.84,248.841,272,240.001,272z"/>
<rect x="208.001" y="304" style="fill:#E3C4B8;" width="64" height="40"/>
<polygon style="fill:#FFFFFF;" points="200.001,344 216.001,472 264.001,472 280.001,344 "/>
<g>
	<polygon style="fill:#E65039;" points="200.001,344 144.001,400 176.001,408 168.001,440 216.001,472 	"/>
	<polygon style="fill:#E65039;" points="280.001,344 336.001,400 304.001,408 312.001,440 264.001,472 	"/>
</g>
<g>
	<polygon style="fill:#BD8931;" points="136.001,184 160.001,168 168.001,104 145.529,104.712 	"/>
	<polygon style="fill:#BD8931;" points="344.001,184 320.001,168 312.001,104 334.473,104.712 	"/>
</g>
<g>
	<path style="fill:#132C47;" d="M479.281,468.688l-40-88c-0.992-2.184-2.92-3.816-5.24-4.424l-152-40
		c-0.04-0.008-0.072,0.008-0.112-0.008c-0.504-0.128-1.016-0.152-1.536-0.176c-0.136,0-0.256-0.08-0.392-0.08v-31.528
		c16.32-4.152,32.136-10.784,46.768-20.096l0.792-0.496c20.648-13.144,32.208-37.352,29.432-61.856l-5.088-37.096
		c0.072-0.616,0.12-1.248,0.048-1.88l-9.008-74.936c9.216-3.6,17.424-9.576,23.728-17.648c10.688-13.688,14.4-31.192,10.176-48.04
		l-9.088-36.36C366.873,2.496,363.673,0,360.001,0h-152c-39.696,0-72,32.296-72,72v32c0,1.4,0.456,2.648,1.088,3.792
		l-14.352,115.136c-0.656,6.36-0.32,12.64,0.824,18.704c-4.088-0.696-7.768-2.856-10.24-6.248c-2.8-3.84-3.744-8.688-2.592-13.304
		l9.032-36.144c1.072-4.28-1.536-8.624-5.824-9.696c-4.256-1.064-8.632,1.52-9.704,5.824L95.201,218.2
		c-2.304,9.216-0.416,18.92,5.184,26.6c5.6,7.688,14.248,12.456,23.736,13.088l5.008,0.336
		c5.048,10.168,12.768,19.024,22.736,25.472c15.016,9.712,31.312,16.592,48.136,20.84V336c-0.12,0-0.232-0.064-0.352-0.056
		c-0.544,0.024-1.08,0.056-1.6,0.056c-0.024,0-0.056,0-0.08,0l-152,40.136c-2.328,0.608-4.256,2.304-5.248,4.488l-40,88.032
		c-1.128,2.48-0.92,5.376,0.552,7.656C2.745,478.6,5.281,480,8.001,480h208h48h208c2.72,0,5.248-1.384,6.728-3.672
		C480.193,474.048,480.409,471.168,479.281,468.688z M296.241,409.936l6.632,26.528l-28.768,19.176l5.896-47.208l5.904-47.208
		l34.44,34.432l-18.288,4.576C297.777,401.312,295.169,405.656,296.241,409.936z M177.945,400.24l-18.296-4.576l34.44-34.44
		l5.904,47.208l5.904,47.208l-28.768-19.176l6.632-26.528C184.833,405.656,182.225,401.312,177.945,400.24z M209.065,352h61.872
		l-14,112h-33.872L209.065,352z M152.625,112h6.224l-6.336,51.016l-6.496,4.16L152.625,112z M325.841,112l7.48,54.92l-5.84-4.072
		L321.153,112H325.841z M152.001,72c0-30.872,25.12-56,56-56h145.752l7.576,30.296c3.008,12.04,0.36,24.544-7.272,34.32
		S334.929,96,322.521,96h-34.728c5.08-6.704,8.208-14.96,8.208-24V56c0-4.424-3.576-8-8-8s-8,3.576-8,8v16c0,13.232-10.768,24-24,24
		h-16.208c5.08-6.704,8.208-14.96,8.208-24V56c0-4.424-3.584-8-8-8s-8,3.576-8,8v16c0,13.232-10.768,24-24,24h-56V72z
		 M148.881,259.544l60.456,4.032c3.2,9.512,12.096,16.424,22.664,16.424h8c13.232,0,24-10.768,24-24s-10.768-24-24-24h-8
		c-10.248,0-18.952,6.488-22.384,15.552l-69.304-4.624c-1.664-5.816-2.32-11.952-1.68-18.192l4.472-35.864l21.336-14.224
		c1.936-1.288,3.208-3.712,3.504-6.016L174.977,112h130.056l7.032,56.64c0.288,2.304,1.56,4.552,3.504,5.84l20.664,13.864
		l4.88,35.624c2.072,18.28-6.616,36.504-22.088,46.352l-0.792,0.504c-47.992,30.544-109.896,30.328-157.68-0.576
		C155.993,267.304,152.129,263.64,148.881,259.544z M224.001,256c0-4.416,3.592-8,8-8h8c4.408,0,8,3.584,8,8s-3.592,8-8,8h-8
		C227.593,264,224.001,260.416,224.001,256z M216.001,312h48v24h-48V312z M53.713,390.776l119.712-31.504l-35.08,35.08
		c-2.04,2.04-2.824,5.016-2.056,7.792c0.768,2.784,2.976,4.928,5.768,5.624l24.24,6.064l-6.056,24.24
		c-0.824,3.272,0.512,6.72,3.328,8.592L189.577,464H20.425L53.713,390.776z M290.425,464l26.016-17.344
		c2.816-1.872,4.144-5.32,3.32-8.592l-6.056-24.24l24.232-6.064c2.8-0.696,5-2.84,5.776-5.624c0.768-2.776-0.016-5.752-2.056-7.792
		l-35.08-35.08l119.712,31.504L459.577,464H290.425z"/>
	<circle style="fill:#132C47;" cx="204.001" cy="164" r="12"/>
	<circle style="fill:#132C47;" cx="276.001" cy="164" r="12"/>
	<path style="fill:#132C47;" d="M408.001,432h-48c-4.424,0-8,3.576-8,8s3.576,8,8,8h48c4.424,0,8-3.576,8-8S412.425,432,408.001,432
		z"/>
</g>
<g>
</g>
<g>
</g>
<g>
</g>
<g>
</g>
<g>
</g>
<g>
</g>
<g>
</g>
<g>
</g>
<g>
</g>
<g>
</g>
<g>
</g>
<g>
</g>
<g>
</g>
<g>
</g>
<g>
</g>
</svg>
